<svg width="16" height="16" viewBox="0 0 16 16" fill="none" xmlns="http://www.w3.org/2000/svg">
    <path
        d="M14.7212 9.38808C14.3174 10.7062 13.5082 11.8634 12.4087 12.695C11.4434 13.4215 10.2947 13.8646 9.09149 13.9746C7.88831 14.0845 6.6783 13.8569 5.59727 13.3174C4.51624 12.7779 3.60699 11.9477 2.97156 10.9201C2.33613 9.89251 1.99968 8.70814 1.99997 7.49995C1.99563 6.08974 2.45407 4.71704 3.30497 3.59245C4.13656 2.49295 5.29374 1.68373 6.61184 1.27995C6.69872 1.2532 6.79124 1.25064 6.87946 1.27254C6.96768 1.29445 7.04826 1.33998 7.11254 1.40426C7.17681 1.46853 7.22235 1.54912 7.24425 1.63734C7.26616 1.72556 7.26359 1.81808 7.23684 1.90495C6.94862 2.85835 6.92445 3.87207 7.16692 4.83812C7.40939 5.80416 7.9094 6.68633 8.61369 7.39061C9.31797 8.09489 10.2001 8.59491 11.1662 8.83738C12.1322 9.07984 13.146 9.05568 14.0993 8.76745C14.1862 8.7407 14.2787 8.73814 14.367 8.76004C14.4552 8.78195 14.5358 8.82748 14.6 8.89176C14.6643 8.95603 14.7099 9.03662 14.7318 9.12484C14.7537 9.21306 14.7511 9.30558 14.7243 9.39245L14.7212 9.38808Z"
        fill="#FFD74B" />
</svg>