<svg width="18" height="21" viewBox="0 0 18 21" fill="none" xmlns="http://www.w3.org/2000/svg">
    <g clip-path="url(#clip0_13_271)">
        <path
            d="M15.5599 4.42739C15.5461 4.32739 15.4585 4.27204 15.3861 4.26595C14.8523 4.22583 14.3184 4.18604 13.7845 4.14656C13.7845 4.14656 12.7224 3.09211 12.6058 2.9754C12.4892 2.85876 12.2614 2.89424 12.1729 2.92026C12.1599 2.9241 11.9409 2.9917 11.5786 3.10382C11.2238 2.08287 10.5976 1.14465 9.49603 1.14465C9.46562 1.14465 9.43432 1.14588 9.40302 1.14766C9.08973 0.733345 8.70165 0.553345 8.36644 0.553345C5.80034 0.553345 4.57439 3.76122 4.19 5.39136C3.19288 5.70033 2.48452 5.91999 2.39404 5.94841C1.83747 6.123 1.81986 6.14054 1.74678 6.66499C1.69178 7.06204 0.235481 18.3243 0.235481 18.3243L11.5833 20.4505L17.7319 19.1203C17.7319 19.1203 15.5734 4.52739 15.5599 4.42739ZM10.9514 3.2978L9.99117 3.59499C9.99151 3.52732 9.99185 3.46074 9.99185 3.38793C9.99185 2.75341 9.90377 2.24252 9.76247 1.83752C10.3301 1.90876 10.7081 2.55458 10.9514 3.2978ZM9.05836 1.96334C9.21617 2.35876 9.31877 2.92622 9.31877 3.69197C9.31877 3.73115 9.31843 3.76697 9.31808 3.80321C8.69363 3.99663 8.01507 4.20663 7.335 4.41732C7.71685 2.94362 8.4326 2.23184 9.05836 1.96334ZM8.29596 1.24163C8.40671 1.24163 8.51829 1.27924 8.62507 1.35273C7.80267 1.73971 6.92117 2.71437 6.54891 4.66074L4.98137 5.14622C5.4174 3.66163 6.45281 1.24163 8.29596 1.24163Z"
            fill="#95BF46" />
        <path
            d="M15.3861 4.26597C14.8523 4.22585 14.3184 4.18606 13.7845 4.14658C13.7845 4.14658 12.7224 3.09213 12.6058 2.97542C12.5622 2.932 12.5034 2.90974 12.4419 2.90015L11.5838 20.4504L17.7319 19.1204C17.7319 19.1204 15.5734 4.52741 15.5599 4.42741C15.5461 4.32741 15.4585 4.27206 15.3861 4.26597Z"
            fill="#5E8E3E" />
        <path
            d="M9.49603 7.66333L8.73788 9.91854C8.73788 9.91854 8.07363 9.56402 7.25939 9.56402C6.06569 9.56402 6.00562 10.3131 6.00562 10.5019C6.00562 11.5319 8.69055 11.9266 8.69055 14.3392C8.69055 16.2373 7.48665 17.4596 5.86336 17.4596C3.91541 17.4596 2.91925 16.2472 2.91925 16.2472L3.44083 14.524C3.44083 14.524 4.4648 15.4031 5.32884 15.4031C5.89343 15.4031 6.12309 14.9585 6.12309 14.6337C6.12309 13.2902 3.92035 13.2303 3.92035 11.0225C3.92035 9.16436 5.25404 7.36621 7.94624 7.36621C8.98357 7.36621 9.49603 7.66333 9.49603 7.66333Z"
            fill="white" />
    </g>
</svg>