<svg width="14" height="14" viewBox="0 0 14 14" fill="none" xmlns="http://www.w3.org/2000/svg">
    <path
        d="M0.733918 1.24582C0.393784 1.58595 0.202698 2.04727 0.202698 2.5283C0.202698 3.00932 0.393784 3.47064 0.733918 3.81077C1.07405 4.15091 1.53537 4.34199 2.0164 4.34199C2.49742 4.34199 2.95874 4.15091 3.29887 3.81077C3.63901 3.47064 3.83009 3.00932 3.83009 2.5283C3.83009 2.04727 3.63901 1.58595 3.29887 1.24582C2.95874 0.905686 2.49742 0.7146 2.0164 0.7146C1.53537 0.7146 1.07405 0.905686 0.733918 1.24582Z"
        fill="white" />
    <path
        d="M12.3674 1.24582C12.0272 0.905686 11.5659 0.7146 11.0849 0.7146C10.6039 0.7146 10.1425 0.905686 9.80241 1.24582C9.46227 1.58595 9.27119 2.04727 9.27119 2.5283C9.27119 3.00932 9.46227 3.47064 9.80241 3.81077C10.1425 4.15091 10.6039 4.34199 11.0849 4.34199C11.5659 4.34199 12.0272 4.15091 12.3674 3.81077C12.7075 3.47064 12.8986 3.00932 12.8986 2.5283C12.8986 2.04727 12.7075 1.58595 12.3674 1.24582Z"
        fill="white" />
    <path
        d="M6.99669 10.573C4.88827 10.573 3.41464 9.58109 2.55313 8.65157H2.56447C2.05437 8.09612 1.19853 8.06211 0.643083 8.57222C0.0876379 9.08232 0.053631 9.94383 0.563733 10.4936C1.80498 11.8482 3.96442 13.2935 7.00236 13.2935C10.0403 13.2935 12.1941 11.8425 13.441 10.4936C13.9511 9.94383 13.9114 9.08232 13.3616 8.57222C12.8119 8.06211 11.9504 8.10179 11.4403 8.65157C10.5787 9.58109 9.10511 10.573 6.99669 10.573Z"
        fill="white" />
</svg>