<svg width="20" height="21" viewBox="0 0 20 21" fill="none" xmlns="http://www.w3.org/2000/svg">
    <g clip-path="url(#clip0_13_258)">
        <path
            d="M2.5 0.5C1.83696 0.5 1.20107 0.763392 0.732233 1.23223C0.263392 1.70107 0 2.33696 0 3L0 18C0 18.663 0.263392 19.2989 0.732233 19.7678C1.20107 20.2366 1.83696 20.5 2.5 20.5H17.5C18.163 20.5 18.7989 20.2366 19.2678 19.7678C19.7366 19.2989 20 18.663 20 18V3C20 2.33696 19.7366 1.70107 19.2678 1.23223C18.7989 0.763392 18.163 0.5 17.5 0.5L2.5 0.5ZM10.2825 7.23125C9.5525 7.23125 9.11125 7.43625 9.11125 7.9725C9.11125 8.5575 9.87 8.815 10.8112 9.135C12.3462 9.65375 14.3663 10.3387 14.375 12.8762C14.375 15.335 12.405 16.75 9.5375 16.75C8.2439 16.7446 6.96468 16.4784 5.77625 15.9675V12.6975C6.93375 13.33 8.395 13.7975 9.53875 13.7975C10.31 13.7975 10.8612 13.5913 10.8612 12.9587C10.8612 12.3112 10.0387 12.015 9.045 11.6575C7.5325 11.1125 5.625 10.425 5.625 8.1375C5.625 5.70625 7.485 4.25 10.2825 4.25C11.4516 4.23954 12.6118 4.45384 13.7 4.88125V8.11C12.6525 7.5475 11.33 7.23125 10.2825 7.23125Z"
            fill="#696FFB" />
    </g>
</svg>