<svg width="16" height="16" viewBox="0 0 16 16" fill="none" xmlns="http://www.w3.org/2000/svg">
    <g clip-path="url(#clip0_13_37)">
        <path
            d="M7.99997 12.6667C8.17678 12.6667 8.34635 12.7369 8.47138 12.8619C8.5964 12.987 8.66664 13.1565 8.66664 13.3333V14C8.66664 14.1768 8.5964 14.3464 8.47138 14.4714C8.34635 14.5964 8.17678 14.6667 7.99997 14.6667C7.82316 14.6667 7.65359 14.5964 7.52857 14.4714C7.40354 14.3464 7.33331 14.1768 7.33331 14V13.3333C7.33331 13.1565 7.40354 12.987 7.52857 12.8619C7.65359 12.7369 7.82316 12.6667 7.99997 12.6667ZM12.2426 11.3L12.714 11.7713C12.8354 11.8971 12.9026 12.0655 12.9011 12.2403C12.8996 12.4151 12.8295 12.5823 12.7059 12.7059C12.5822 12.8295 12.415 12.8996 12.2402 12.9011C12.0654 12.9026 11.897 12.8354 11.7713 12.714L11.3 12.2427C11.1785 12.1169 11.1113 11.9485 11.1129 11.7737C11.1144 11.5989 11.1845 11.4317 11.3081 11.3081C11.4317 11.1845 11.5989 11.1144 11.7737 11.1129C11.9485 11.1114 12.1169 11.1786 12.2426 11.3ZM3.75731 11.3C3.87728 11.1804 4.03826 11.111 4.20756 11.1059C4.37686 11.1007 4.54178 11.1602 4.66883 11.2722C4.79587 11.3842 4.87551 11.5404 4.89157 11.709C4.90764 11.8776 4.85891 12.046 4.75531 12.18L4.69997 12.2427L4.22864 12.714C4.10867 12.8336 3.94768 12.903 3.77838 12.9082C3.60908 12.9133 3.44416 12.8539 3.31712 12.7418C3.19008 12.6298 3.11044 12.4736 3.09437 12.305C3.07831 12.1364 3.12703 11.968 3.23064 11.834L3.28597 11.7713L3.75731 11.3ZM7.99997 4.00001C9.06084 4.00001 10.0783 4.42144 10.8284 5.17158C11.5785 5.92173 12 6.93914 12 8.00001C12 9.06088 11.5785 10.0783 10.8284 10.8284C10.0783 11.5786 9.06084 12 7.99997 12C6.93911 12 5.92169 11.5786 5.17155 10.8284C4.4214 10.0783 3.99997 9.06088 3.99997 8.00001C3.99997 6.93914 4.4214 5.92173 5.17155 5.17158C5.92169 4.42144 6.93911 4.00001 7.99997 4.00001ZM2.66664 7.33334C2.83656 7.33353 2.99999 7.3986 3.12355 7.51524C3.24711 7.63189 3.32146 7.79131 3.33142 7.96094C3.34138 8.13057 3.28619 8.2976 3.17713 8.4279C3.06807 8.5582 2.91337 8.64194 2.74464 8.66201L2.66664 8.66668H1.99997C1.83005 8.66649 1.66662 8.60142 1.54306 8.48478C1.4195 8.36813 1.34515 8.20871 1.33519 8.03908C1.32523 7.86945 1.38042 7.70242 1.48948 7.57212C1.59854 7.44182 1.75324 7.35808 1.92197 7.33801L1.99997 7.33334H2.66664ZM14 7.33334C14.1768 7.33334 14.3464 7.40358 14.4714 7.52861C14.5964 7.65363 14.6666 7.8232 14.6666 8.00001C14.6666 8.17682 14.5964 8.34639 14.4714 8.47141C14.3464 8.59644 14.1768 8.66668 14 8.66668H13.3333C13.1565 8.66668 12.9869 8.59644 12.8619 8.47141C12.7369 8.34639 12.6666 8.17682 12.6666 8.00001C12.6666 7.8232 12.7369 7.65363 12.8619 7.52861C12.9869 7.40358 13.1565 7.33334 13.3333 7.33334H14ZM3.28597 3.28601C3.40077 3.17123 3.5535 3.10227 3.71552 3.09208C3.87754 3.0819 4.0377 3.13118 4.16597 3.23068L4.22864 3.28601L4.69997 3.75734C4.81954 3.87732 4.88896 4.0383 4.89413 4.2076C4.8993 4.3769 4.83983 4.54182 4.72781 4.66886C4.61579 4.79591 4.45961 4.87555 4.29099 4.89161C4.12238 4.90767 3.95397 4.85895 3.81997 4.75534L3.75731 4.70001L3.28597 4.22868C3.16099 4.10366 3.09078 3.93412 3.09078 3.75734C3.09078 3.58057 3.16099 3.41103 3.28597 3.28601ZM12.714 3.28601C12.839 3.41103 12.9092 3.58057 12.9092 3.75734C12.9092 3.93412 12.839 4.10366 12.714 4.22868L12.2426 4.70001C12.1811 4.76368 12.1076 4.81447 12.0262 4.84941C11.9449 4.88435 11.8574 4.90274 11.7689 4.90351C11.6804 4.90428 11.5926 4.88741 11.5107 4.85389C11.4287 4.82037 11.3543 4.77087 11.2917 4.70827C11.2291 4.64568 11.1796 4.57124 11.1461 4.48931C11.1126 4.40738 11.0957 4.3196 11.0965 4.23108C11.0972 4.14256 11.1156 4.05508 11.1506 3.97374C11.1855 3.8924 11.2363 3.81884 11.3 3.75734L11.7713 3.28601C11.8963 3.16103 12.0659 3.09082 12.2426 3.09082C12.4194 3.09082 12.589 3.16103 12.714 3.28601ZM7.99997 1.33334C8.17678 1.33334 8.34635 1.40358 8.47138 1.52861C8.5964 1.65363 8.66664 1.8232 8.66664 2.00001V2.66668C8.66664 2.84349 8.5964 3.01306 8.47138 3.13808C8.34635 3.26311 8.17678 3.33334 7.99997 3.33334C7.82316 3.33334 7.65359 3.26311 7.52857 3.13808C7.40354 3.01306 7.33331 2.84349 7.33331 2.66668V2.00001C7.33331 1.8232 7.40354 1.65363 7.52857 1.52861C7.65359 1.40358 7.82316 1.33334 7.99997 1.33334Z"
            fill="#FFD74B" />
    </g>
    <defs>
        <clipPath id="clip0_13_37">
            <rect width="16" height="16" fill="white" />
        </clipPath>
    </defs>
</svg>