<svg width="20" height="21" viewBox="0 0 20 21" fill="none" xmlns="http://www.w3.org/2000/svg">
    <path
        d="M12.5 10.5031C12.5004 11.2247 12.3702 11.9404 12.1156 12.6156C11.4404 12.8703 10.7247 13.0005 10.0031 13H9.99625C9.27465 13.0004 8.55894 12.8702 7.88375 12.6156C7.62938 11.9404 7.49916 11.2247 7.49937 10.5031V10.4963C7.49937 9.75125 7.63625 9.04125 7.88375 8.38375C8.55894 8.12915 9.27465 7.99893 9.99625 7.99937H10.0031C10.7481 7.99937 11.4612 8.13625 12.1156 8.38375C12.3702 9.05894 12.5004 9.77465 12.5 10.4963V10.5031ZM19.8631 8.83313H14.0231L18.1475 4.70563C17.8246 4.25105 17.4642 3.82435 17.07 3.43C16.6758 3.03468 16.2491 2.6732 15.7944 2.34938L11.6669 6.47375V0.636875C11.1169 0.547874 10.5608 0.502109 10.0037 0.5L9.99375 0.5C9.42687 0.5 8.87375 0.551875 8.33375 0.636875V6.47687L4.20937 2.3525C3.75138 2.67246 3.32319 3.03309 2.93 3.43C2.53363 3.8232 2.17207 4.25001 1.84937 4.70563L5.97375 8.83313H0.136875C0.136875 8.83313 0 9.93 0 10.4963V10.5031C0 11.07 0.051875 11.6263 0.136875 12.1663H5.97687L1.8525 16.2906C2.49741 17.205 3.29313 18.003 4.20562 18.6506L8.33312 14.5262V20.3631C8.87312 20.4506 9.42625 20.5 9.99312 20.5H10.0062C10.5731 20.5 11.1262 20.4506 11.6662 20.3631V14.5262L15.7906 18.6506C16.25 18.3381 16.6762 17.9738 17.0662 17.5763H17.0694C17.4675 17.1847 17.8292 16.7577 18.15 16.3006L14.0256 12.1762H19.8625C19.95 11.6387 19.9994 11.0887 19.9994 10.5256V10.5C19.9994 9.93312 19.95 9.38 19.8625 8.84313L19.8631 8.83313Z"
        fill="#FF3200" />
</svg>